<svg id="visual" viewBox="0 0 1920 1080" width="1920" height="1080" xmlns="http://www.w3.org/2000/svg" xmlns:xlink="http://www.w3.org/1999/xlink" version="1.1"><rect x="0" y="0" width="1920" height="1080" fill="#E1C59E"></rect><path d="M0 689L274 679L549 775L823 758L1097 800L1371 665L1646 673L1920 720L1920 1081L1646 1081L1371 1081L1097 1081L823 1081L549 1081L274 1081L0 1081Z" fill="#e38b3a"></path><path d="M0 822L274 730L549 751L823 785L1097 723L1371 760L1646 784L1920 742L1920 1081L1646 1081L1371 1081L1097 1081L823 1081L549 1081L274 1081L0 1081Z" fill="#e29b52"></path><path d="M0 857L274 874L549 838L823 896L1097 868L1371 911L1646 839L1920 899L1920 1081L1646 1081L1371 1081L1097 1081L823 1081L549 1081L274 1081L0 1081Z" fill="#e2aa6a"></path><path d="M0 920L274 937L549 923L823 890L1097 894L1371 881L1646 952L1920 880L1920 1081L1646 1081L1371 1081L1097 1081L823 1081L549 1081L274 1081L0 1081Z" fill="#e1b883"></path><path d="M0 1016L274 988L549 984L823 964L1097 974L1371 1033L1646 1010L1920 971L1920 1081L1646 1081L1371 1081L1097 1081L823 1081L549 1081L274 1081L0 1081Z" fill="#e1c59e"></path></svg>